<?xml version="1.0" ?><!DOCTYPE svg  PUBLIC '-//W3C//DTD SVG 1.1//EN'  'http://www.w3.org/Graphics/SVG/1.1/DTD/svg11.dtd'><svg enable-background="new 0 0 66 66" id="Layer_1" version="1.1" viewBox="0 0 66 66" width='30%' height='30%' xml:space="preserve" xmlns="http://www.w3.org/2000/svg" xmlns:xlink="http://www.w3.org/1999/xlink"><g><g><path d="M8.7,47.4l2.1,0.4c0.2,0.8,0.6,1.6,1,2.3l-1.2,1.8c-0.3,0.4-0.2,0.9,0.1,1.3l3,3c0.3,0.3,0.9,0.4,1.3,0.1l1.8-1.2    c0.7,0.4,1.5,0.7,2.3,1l0.4,2.1c0.1,0.5,0.5,0.8,1,0.8h4.3c0.5,0,0.9-0.3,1-0.8l0.4-2.1c0.8-0.2,1.6-0.6,2.3-1l1.8,1.2    c0.2,0.2,0.5,0.2,0.8,0.1c0.2,2.7,0.1,4.7,0.1,7.6c0,0.8,1,1.3,1.6,0.8l9.2-7.1c0.2-0.2,0.4-0.5,0.4-0.8v-4.5    c0-8.1,2.5-10.8,7.6-16.1c0.3-0.3,8-8.6,8.2-8.9c0-0.1,0.1-0.2,0.1-0.4c0,0,0,0,0,0v-5.8c0-1.6-1.3-2.8-2.8-2.8h-9.7    c0.1-0.3,0.1-0.7,0.1-1.1c0-3.8-3.1-7-7-7c-3.8,0-7,3.1-7,7c0,0.4,0,0.7,0.1,1.1H18.1c-1.6,0-2.8,1.3-2.8,2.8c0,6.1,0,5.9,0.1,6.2    c0,0.1,0.1,0.2,0.2,0.3l3.7,4L19,32.5c-0.8,0.2-1.6,0.6-2.3,1L15,32.3c-0.4-0.3-0.9-0.2-1.3,0.1l-3,3c-0.3,0.3-0.4,0.9-0.1,1.3    l1.2,1.8c-0.4,0.7-0.7,1.5-1,2.3l-2.1,0.4c-0.5,0.1-0.8,0.5-0.8,1v4.3C7.9,46.9,8.2,47.3,8.7,47.4z M33.8,17.3c0-2.7,2.2-5,5-5    c2.7,0,5,2.2,5,5c0,0.4-0.1,0.7-0.1,1.1h-9.7C33.8,18,33.8,17.7,33.8,17.3z M17.2,21.2c0-0.5,0.4-0.8,0.8-0.8h37.2    c0.5,0,0.8,0.4,0.8,0.8V26H17.2V21.2z M54.8,28c-4.1,4.5-3.7,4-6.4,6.9c-5.1,5.3-8.1,8.6-8.1,17.5v4L33.1,62    c0-2.6,0.1-4.4-0.3-7.2l1.7-1.7c0.3-0.3,0.4-0.9,0.1-1.3l-1.2-1.8c0.4-0.7,0.7-1.5,1-2.3l2.1-0.4c0.5-0.1,0.8-0.5,0.8-1v-4.3    c0-0.5-0.3-0.9-0.8-1l-2.1-0.4c-0.2-0.8-0.6-1.6-1-2.3l1.2-1.8c0.3-0.4,0.2-0.9-0.1-1.3l-3-3C31,32,30.5,32,30.1,32.3l-1.8,1.2    c-0.7-0.4-1.5-0.7-2.3-1l-0.4-2.1c-0.1-0.5-0.5-0.8-1-0.8h-4.3c-0.1,0-0.2,0-0.4,0.1L18.5,28H54.8z M9.9,42.9l1.9-0.3    c0.4-0.1,0.7-0.4,0.8-0.8c0.2-1,0.7-2,1.2-2.9c0.2-0.3,0.2-0.8,0-1.1l-1.1-1.6l1.9-1.9l1.6,1.1c0.3,0.2,0.8,0.2,1.1,0    c0.9-0.6,1.9-1,2.9-1.2c0.4-0.1,0.7-0.4,0.8-0.8l0.3-1.9h2.6l0.3,1.9c0.1,0.4,0.4,0.7,0.8,0.8c1,0.2,2,0.7,2.9,1.2    c0.3,0.2,0.8,0.2,1.1,0l1.6-1.1l1.9,1.9l-1.1,1.6c-0.2,0.3-0.2,0.8,0,1.1c0.6,0.9,1,1.9,1.2,2.9c0.1,0.4,0.4,0.7,0.8,0.8l1.9,0.3    v2.6l-1.9,0.3c-0.4,0.1-0.7,0.4-0.8,0.8c-0.2,1-0.7,2-1.2,2.9c-0.2,0.3-0.2,0.8,0,1.1l1.1,1.6l-1.9,1.9L29,53    c-0.3-0.2-0.8-0.2-1.1,0C27,53.5,26,54,25,54.2c-0.4,0.1-0.7,0.4-0.8,0.8l-0.3,1.9h-2.6L20.9,55c-0.1-0.4-0.4-0.7-0.8-0.8    c-1-0.2-2-0.7-2.9-1.2c-0.3-0.2-0.8-0.2-1.1,0l-1.6,1.1l-1.9-1.9l1.1-1.6c0.2-0.3,0.2-0.8,0-1.1c-0.6-0.9-1-1.9-1.2-2.9    c-0.1-0.4-0.4-0.7-0.8-0.8l-1.9-0.3V42.9z"/></g><g><path d="M22.6,51.6c4.1,0,7.4-3.3,7.4-7.4c0-4.1-3.3-7.4-7.4-7.4c-4.1,0-7.4,3.3-7.4,7.4C15.2,48.3,18.5,51.6,22.6,51.6z     M22.6,38.9c3,0,5.4,2.4,5.4,5.4c0,3-2.4,5.4-5.4,5.4c-3,0-5.4-2.4-5.4-5.4C17.2,41.3,19.6,38.9,22.6,38.9z"/></g><g><path d="M24.1,11.5c2.4,0,4.4-2,4.4-4.4c0-2.4-2-4.4-4.4-4.4c-2.4,0-4.4,2-4.4,4.4C19.7,9.6,21.7,11.5,24.1,11.5z M24.1,4.7    c1.3,0,2.4,1.1,2.4,2.4s-1.1,2.4-2.4,2.4c-1.3,0-2.4-1.1-2.4-2.4S22.8,4.7,24.1,4.7z"/></g><g><path d="M52,13.3c3.4,0,6.1-2.8,6.1-6.1S55.3,1,52,1c-3.4,0-6.1,2.8-6.1,6.1S48.6,13.3,52,13.3z M52,3c2.3,0,4.1,1.9,4.1,4.1    s-1.9,4.1-4.1,4.1c-2.3,0-4.1-1.9-4.1-4.1S49.7,3,52,3z"/></g></g></svg>